HIERARCHY
ROOT Hips
{
	OFFSET 0.00000 0.00000 0.00000
	CHANNELS 6 Xposition Yposition Zposition Zrotation Yrotation Xrotation 
	JOINT RightUpLegDummy
	{
		OFFSET 0 0 0
		CHANNELS 3 Zrotation Yrotation Xrotation
		JOINT RightUpLeg
		{
			OFFSET -3.52197 -3.41223 0.04002
			CHANNELS 3 Zrotation Yrotation Xrotation
			JOINT RightLeg
			{
				OFFSET 0.00006 -17.42390 1.60435
				CHANNELS 3 Zrotation Yrotation Xrotation
				JOINT RightFoot
				{
					OFFSET 0.06153 -16.50078 -1.63901
					CHANNELS 3 Zrotation Yrotation Xrotation
					JOINT RightToes
					{
						OFFSET 0.00298 -1.73825 3.34613
						CHANNELS 3 Zrotation Yrotation Xrotation
						End Site
						{
							OFFSET 0.00480 -0.05416 3.85043
						}
					}
				}
			}
		}
	}
	JOINT SpineDummy
	{
		OFFSET 0 0 0
		CHANNELS 3 Zrotation Yrotation Xrotation
		JOINT Spine
		{
			OFFSET 0.00000 4.68130 0.00000
			CHANNELS 3 Zrotation Yrotation Xrotation
			JOINT Spine1
			{
				OFFSET -0.00000 10.10138 0.05002
				CHANNELS 3 Zrotation Yrotation Xrotation
				JOINT HEadDummy
				{
					OFFSET 0 0 0
					CHANNELS 3 Zrotation Yrotation Xrotation
					JOINT Head
					{
						OFFSET -0.00000 3.43865 0.00438
						CHANNELS 3 Zrotation Yrotation Xrotation
						End Site
						{
							OFFSET -0.11417 5.02924 0.98962
						}
					}
				}
				JOINT LeftShoulder1Dummy
				{
					OFFSET 0 0 0
					CHANNELS 3 Zrotation Yrotation Xrotation
					JOINT LeftShoulder1
					{
						OFFSET 3.53937 -0.14262 -0.08662
						CHANNELS 3 Zrotation Yrotation Xrotation
						JOINT LeftArm
						{
							OFFSET 4.04833 -0.00133 0.12681
							CHANNELS 3 Zrotation Yrotation Xrotation
							JOINT LeftForeArm
							{
								OFFSET 10.33880 -0.01036 -0.55515
								CHANNELS 3 Zrotation Yrotation Xrotation
								JOINT LeftHand
								{
									OFFSET 8.69677 0.07543 0.40060
									CHANNELS 3 Zrotation Yrotation Xrotation
									End Site
									{
										OFFSET 5.28377 -0.21905 0.59205
									}
								}
							}
						}
					}
				}
				JOINT RightShoulderDummy
				{
					OFFSET 0 0 0
					CHANNELS 3 Zrotation Yrotation Xrotation
					JOINT RightShoulder
					{
						OFFSET -3.53937 -0.14262 -0.08660
						CHANNELS 3 Zrotation Yrotation Xrotation
						JOINT RightArm
						{
							OFFSET -4.04833 -0.00133 0.12683
							CHANNELS 3 Zrotation Yrotation Xrotation
							JOINT RightForeArm
							{
								OFFSET -10.37987 -0.01039 -0.55511
								CHANNELS 3 Zrotation Yrotation Xrotation
								JOINT RightHand
								{
									OFFSET -8.67398 0.07538 0.40058
									CHANNELS 3 Zrotation Yrotation Xrotation
									End Site
									{
										OFFSET -5.24810 -0.21916 0.59204
									}
								}
							}
						}
					}
				}
			}
		}
	}
	JOINT LeftUpLegDummy
	{
		OFFSET 0 0 0
		CHANNELS 3 Zrotation Yrotation Xrotation
		JOINT LeftUpLeg
		{
			OFFSET 3.52197 -3.41223 0.04002
			CHANNELS 3 Zrotation Yrotation Xrotation
			JOINT LeftLeg
			{
				OFFSET -0.00012 -17.42399 1.60337
				CHANNELS 3 Zrotation Yrotation Xrotation
				JOINT LeftFoot
				{
					OFFSET -0.09972 -16.50070 -1.63802
					CHANNELS 3 Zrotation Yrotation Xrotation
					JOINT LeftToes
					{
						OFFSET -0.01575 -1.73823 3.34611
						CHANNELS 3 Zrotation Yrotation Xrotation
						End Site
						{
							OFFSET 0.03150 -0.01868 3.85031
						}
					}
				}
			}
		}
	}
}
MOTION
Frames: 19
Frame Time: 0.033333
8.3955 39.0405 44.5717 -179.7360 -19.9212 174.1020 0.0000 0.0000 0.0000 0.9839 1.9365 10.6011 1.4055 5.7038 15.1565 -4.2275 -0.2465 -16.3968 0.0000 -0.0000 -0.0000 0.0000 0.0000 0.0000 -2.3173 -1.3599 8.1235 4.7099 -2.3597 0.3121 -0.0000 0.0000 -0.0000 5.2760 -8.1869 -7.8804 -0.0000 0.0000 -0.0000 -34.9022 -2.7861 2.5753 -44.6229 -14.9876 -18.2213 -10.2589 5.2548 43.5521 19.2011 -4.8942 -1.6720 -0.0000 0.0000 -0.0000 34.3680 5.0462 3.4527 39.5056 11.6930 -6.6886 10.2083 11.1524 9.9432 -10.2644 1.6966 -0.6118 0.0000 0.0000 0.0000 7.6966 4.3783 -15.4251 0.2619 -0.9061 0.9062 0.4735 0.0107 -5.6350 0.0000 0.0000 -0.0000
7.3396 38.8706 43.7481 -179.6280 -19.0513 174.1760 0.0000 0.0000 0.0000 0.0302 3.3723 11.3636 1.7827 5.1863 16.9194 -3.0050 -0.2114 -16.9907 0.0000 -0.0000 -0.0000 0.0000 0.0000 0.0000 -1.8402 -1.3352 7.7542 4.3818 -2.2508 0.3461 -0.0000 0.0000 -0.0000 5.1449 -8.0383 -8.2577 -0.0000 0.0000 -0.0000 -34.9585 -2.8046 2.5865 -44.8205 -14.4052 -19.4077 -9.6209 5.2346 44.5990 20.7657 -4.5475 -1.7544 -0.0000 0.0000 -0.0000 34.4087 5.0490 3.4574 39.1918 10.5506 -6.3572 10.2605 11.3816 7.8385 -10.6274 1.2247 -0.5924 0.0000 0.0000 0.0000 7.2046 3.8482 -15.2645 0.7627 -0.0478 3.3458 0.7042 -0.0017 -5.6815 0.0000 0.0000 -0.0000
6.2181 38.7646 42.8936 -179.7060 -18.2036 174.1590 0.0000 0.0000 0.0000 -1.2745 4.2524 12.3131 2.1001 5.0803 18.6234 -1.6420 -0.1312 -16.2684 0.0000 -0.0000 -0.0000 0.0000 0.0000 0.0000 -1.4934 -1.2696 7.2663 4.1485 -2.1249 0.5871 -0.0000 0.0000 -0.0000 4.8806 -7.9293 -8.6823 -0.0000 0.0000 -0.0000 -35.1140 -2.8170 2.6016 -44.6956 -13.9517 -20.7446 -9.0543 5.2614 43.8083 19.6897 -3.8618 -1.5506 -0.0000 0.0000 -0.0000 34.4286 5.0584 3.4629 38.7539 9.0273 -6.3221 10.3269 11.5180 6.1740 -10.9810 0.7765 -0.5761 0.0000 0.0000 0.0000 6.3801 3.1197 -14.8913 1.5769 2.1549 6.3137 0.5880 -0.0169 -3.5162 0.0000 0.0000 -0.0000
5.0965 38.7451 41.9919 179.7660 -17.7551 174.1840 0.0000 0.0000 0.0000 -3.1001 4.4107 13.1556 2.3586 5.1766 20.7137 0.3163 -0.0461 -14.2357 0.0000 -0.0000 -0.0000 0.0000 0.0000 0.0000 -2.1873 -1.2798 6.6120 4.6537 -2.2154 0.8616 -0.0000 0.0000 -0.0000 4.5403 -7.7746 -8.5760 -0.0000 0.0000 -0.0000 -35.4604 -2.7788 2.6081 -44.1581 -13.5533 -22.1134 -8.5099 5.2903 42.9105 16.6262 -3.1963 -1.2085 -0.0000 0.0000 -0.0000 34.5124 5.0799 3.4788 38.0432 7.3008 -8.0750 10.6905 10.5997 7.3195 -11.0917 0.7799 -0.5821 0.0000 0.0000 0.0000 5.2536 2.7012 -14.2429 1.7090 3.8192 8.6297 -0.5764 0.0595 -0.4113 0.0000 0.0000 -0.0000
4.0284 38.7573 41.0891 178.9150 -18.1295 174.4400 0.0000 0.0000 0.0000 -5.2463 3.7935 12.8916 2.6356 4.9058 24.4610 3.3552 -0.0542 -11.0531 0.0000 -0.0000 -0.0000 0.0000 0.0000 0.0000 -3.9123 -1.5355 5.9675 5.8634 -2.6532 0.7868 -0.0000 0.0000 -0.0000 4.2354 -7.6969 -7.8183 -0.0000 0.0000 -0.0000 -35.5618 -2.7336 2.5959 -43.6160 -13.3515 -23.1701 -7.9070 5.2642 44.1387 13.7091 -2.8958 -0.9539 -0.0000 0.0000 -0.0000 34.5544 5.0821 3.4834 37.5071 5.4558 -11.8846 11.1071 8.4406 11.3165 -11.1292 1.4190 -0.6407 0.0000 0.0000 0.0000 3.8859 2.5706 -13.5621 0.9023 3.9861 10.4169 -2.3513 0.2495 1.2620 0.0000 0.0000 -0.0000
3.0289 38.7358 40.2699 178.2020 -19.1165 174.8060 0.0000 0.0000 0.0000 -7.1082 2.5715 10.8930 2.3832 3.5800 30.5949 6.4955 -0.3469 -5.6982 0.0000 -0.0000 -0.0000 0.0000 0.0000 0.0000 -5.5077 -1.9396 5.8007 6.9006 -3.1684 0.1974 -0.0000 0.0000 -0.0000 4.1313 -7.9797 -6.9362 -0.0000 0.0000 -0.0000 -34.9132 -2.7374 2.5561 -43.5823 -13.5729 -23.5475 -7.3551 5.1778 47.5035 12.4772 -2.9662 -0.8735 -0.0000 0.0000 -0.0000 34.4103 5.0450 3.4559 37.7462 3.4644 -15.9753 10.9256 6.1402 14.9665 -11.3120 2.1188 -0.7144 0.0000 0.0000 0.0000 2.5340 2.4593 -13.1952 -0.1594 3.1841 12.5694 -3.8590 0.4015 0.7156 0.0000 0.0000 -0.0000
2.0898 38.6485 39.5674 177.8540 -19.9425 174.7820 0.0000 0.0000 0.0000 -8.1810 1.7785 7.6216 0.6341 0.9365 38.4562 8.2647 -0.9877 2.4643 0.0000 -0.0000 -0.0000 0.0000 0.0000 0.0000 -6.1136 -2.1520 6.5658 7.1393 -3.3684 -0.6202 -0.0000 0.0000 -0.0000 4.2704 -8.5291 -6.6989 -0.0000 0.0000 -0.0000 -33.8132 -2.7756 2.5017 -43.8148 -14.1390 -23.0080 -7.2860 5.0922 50.4613 12.6089 -3.0888 -0.8958 -0.0000 0.0000 -0.0000 34.1878 5.0055 3.4207 38.5869 1.5361 -18.7352 10.2645 4.6518 15.7046 -11.3713 2.1209 -0.7184 0.0000 0.0000 0.0000 1.4370 2.3652 -13.0178 -0.9469 2.4439 15.5538 -4.2985 0.3960 -1.0024 0.0000 0.0000 -0.0000
1.2060 38.5166 38.9356 177.6710 -20.1850 174.1470 0.0000 0.0000 0.0000 -8.4830 2.1067 3.9958 -2.4490 -1.6961 46.5259 8.2456 -1.5416 10.4604 0.0000 -0.0000 -0.0000 0.0000 0.0000 0.0000 -6.1807 -2.0578 8.1341 7.0075 -3.2661 -1.2280 -0.0000 0.0000 -0.0000 4.4396 -8.7581 -7.5027 -0.0000 0.0000 -0.0000 -33.2017 -2.7855 2.4668 -43.4185 -14.6348 -21.5713 -8.1011 5.0762 50.7169 12.8745 -3.3286 -0.9400 -0.0000 0.0000 -0.0000 34.1348 5.0121 3.4188 39.2225 0.1744 -20.2382 9.8094 3.6055 14.6769 -11.0627 1.4778 -0.6421 0.0000 0.0000 0.0000 0.5101 2.3868 -12.4768 -1.4737 2.2012 18.7715 -3.1321 0.2522 -2.8042 0.0000 0.0000 -0.0000
0.3546 38.4260 38.2787 177.4950 -20.2176 173.3400 0.0000 0.0000 0.0000 -8.1604 3.1077 0.4563 -5.2502 -2.9966 53.3436 6.6045 -1.4200 13.6639 0.0000 -0.0000 -0.0000 0.0000 0.0000 0.0000 -6.4761 -1.9281 9.6347 7.2160 -3.2447 -1.3776 -0.0000 0.0000 -0.0000 4.4252 -8.3526 -9.0565 -0.0000 0.0000 -0.0000 -33.4554 -2.7436 2.4664 -42.0616 -14.8464 -19.7854 -9.4951 5.1255 48.5610 12.9770 -3.8557 -1.0031 -0.0000 0.0000 -0.0000 34.3239 5.0574 3.4534 39.2987 -0.3235 -20.6775 9.7545 2.3731 14.4363 -10.6079 0.9574 -0.5711 0.0000 0.0000 0.0000 -0.4860 2.3218 -11.2157 -1.7303 2.2684 21.0727 -0.6889 0.0691 -4.4799 0.0000 0.0000 -0.0000
-0.4798 38.4321 37.5541 177.4940 -20.5454 172.8390 0.0000 0.0000 0.0000 -7.1927 4.0796 -3.0442 -6.9737 -3.3297 57.8177 4.2390 -0.8176 11.4847 0.0000 -0.0000 -0.0000 0.0000 0.0000 0.0000 -6.9611 -2.0091 10.3883 7.7663 -3.5158 -1.1805 -0.0000 0.0000 -0.0000 4.3592 -7.7744 -10.6080 -0.0000 0.0000 -0.0000 -33.9372 -2.6869 2.4742 -40.5056 -15.0724 -18.5474 -10.5663 5.1834 46.0924 13.6051 -4.3186 -1.1048 -0.0000 0.0000 -0.0000 34.6069 5.1012 3.4957 39.2619 -0.2797 -20.5220 9.7964 1.0664 16.3323 -10.3655 1.0037 -0.5617 0.0000 0.0000 0.0000 -1.4727 2.0582 -9.5560 -1.6855 2.3540 22.1496 1.8071 -0.0452 -6.1628 0.0000 0.0000 -0.0000
-1.2845 38.4845 36.7963 177.8080 -21.1685 172.6170 0.0000 0.0000 0.0000 -5.6948 5.1007 -6.4110 -8.2354 -3.6754 59.4721 2.8344 -0.4350 7.3366 0.0000 -0.0000 -0.0000 0.0000 0.0000 0.0000 -7.1850 -2.2512 10.5774 8.1995 -3.9181 -0.9436 -0.0000 0.0000 -0.0000 4.5298 -7.6295 -11.4981 -0.0000 0.0000 -0.0000 -33.9479 -2.6496 2.4600 -39.5970 -15.6828 -18.3380 -10.7783 5.2166 44.7680 15.0308 -4.2822 -1.2205 -0.0000 0.0000 -0.0000 34.7840 5.1215 3.5195 39.6730 -0.2862 -20.4811 9.6760 0.2356 19.2473 -10.4421 1.2428 -0.5856 0.0000 0.0000 0.0000 -2.1319 1.8657 -8.0237 -1.6122 2.2783 22.7256 3.3846 -0.0582 -7.8183 0.0000 0.0000 -0.0000
-2.0722 38.5399 36.0195 178.3040 -21.8478 172.4340 0.0000 0.0000 0.0000 -3.9782 6.6132 -9.3982 -9.3087 -4.3642 58.5803 2.2565 -0.2917 4.1633 0.0000 -0.0000 -0.0000 0.0000 0.0000 0.0000 -7.0315 -2.5053 10.6037 8.3405 -4.2664 -0.8029 -0.0000 0.0000 -0.0000 4.8966 -7.9262 -11.5990 -0.0000 0.0000 -0.0000 -33.5875 -2.6389 2.4333 -39.2936 -16.6231 -18.8435 -10.4067 5.2346 44.2556 16.4937 -3.8126 -1.2809 -0.0000 0.0000 -0.0000 34.7612 5.1181 3.5161 40.5463 -0.5680 -20.6342 9.5055 0.0907 20.8443 -10.5859 1.2694 -0.5961 0.0000 0.0000 0.0000 -2.4334 1.9235 -6.5032 -1.8152 1.9514 23.0840 4.3225 -0.0209 -9.3120 0.0000 0.0000 -0.0000
-2.8624 38.6027 35.2264 178.8780 -22.6014 172.2490 0.0000 0.0000 0.0000 -2.3066 8.5709 -11.9416 -9.8060 -5.2544 55.6105 1.4278 -0.1583 1.7935 0.0000 -0.0000 -0.0000 0.0000 0.0000 0.0000 -6.6726 -2.7757 10.6099 8.4180 -4.6148 -0.7501 -0.0000 0.0000 -0.0000 5.1568 -8.2915 -11.3208 -0.0000 0.0000 -0.0000 -33.3689 -2.6437 2.4217 -39.0637 -17.6054 -19.3695 -10.0608 5.2557 43.6016 17.1690 -3.3412 -1.2692 -0.0000 0.0000 -0.0000 34.6200 5.1024 3.4974 41.4433 -0.8929 -20.6296 9.5169 0.3435 20.4561 -10.5555 1.1663 -0.5858 0.0000 0.0000 0.0000 -2.6005 2.0500 -4.7288 -2.1720 1.3570 22.9732 5.4593 0.0312 -10.6445 0.0000 0.0000 -0.0000
-3.6470 38.6573 34.4447 179.6130 -23.5957 172.0800 0.0000 0.0000 0.0000 -0.8416 10.5057 -14.0513 -9.4041 -6.1206 50.7348 0.8461 -0.0814 -0.3567 0.0000 -0.0000 -0.0000 0.0000 0.0000 0.0000 -6.1775 -3.1434 10.6588 8.5952 -5.0749 -0.7611 -0.0000 0.0000 -0.0000 5.2438 -8.5383 -11.2272 -0.0000 0.0000 -0.0000 -33.4169 -2.6538 2.4286 -38.7912 -18.5147 -19.5166 -10.0059 5.2792 42.7069 17.0887 -3.1381 -1.2343 -0.0000 0.0000 -0.0000 34.5395 5.0911 3.4858 41.9937 -0.9644 -20.3077 9.6930 0.6598 19.5819 -10.3314 1.1148 -0.5688 0.0000 0.0000 0.0000 -2.7005 2.0473 -2.9307 -2.3661 0.6090 22.6458 6.9181 0.1113 -11.9846 0.0000 0.0000 -0.0000
-4.4182 38.6904 33.6842 -179.5220 -24.7864 171.8540 0.0000 0.0000 0.0000 0.3121 12.1007 -15.5444 -8.3129 -6.8759 44.1417 0.9712 -0.0893 -1.4879 0.0000 -0.0000 -0.0000 0.0000 0.0000 0.0000 -5.6181 -3.5854 10.7873 8.8276 -5.6226 -0.7271 -0.0000 0.0000 -0.0000 5.3806 -8.6993 -11.5945 -0.0000 0.0000 -0.0000 -33.4771 -2.6776 2.4417 -38.8034 -19.3442 -19.3441 -10.0790 5.2907 42.2151 16.7719 -3.2032 -1.2195 -0.0000 0.0000 -0.0000 34.5914 5.0958 3.4915 42.1657 -0.6757 -19.7961 9.8763 0.9102 19.6261 -10.0930 1.1606 -0.5590 0.0000 0.0000 0.0000 -2.6653 2.0340 -1.2055 -2.4780 -0.2245 22.3352 8.1705 0.2189 -13.2923 0.0000 0.0000 -0.0000
-5.1777 38.7420 32.9310 -178.7850 -25.9526 171.6400 0.0000 0.0000 0.0000 1.1303 13.3084 -16.3917 -6.9344 -7.5108 36.3560 1.0674 -0.0979 -1.4312 0.0000 -0.0000 -0.0000 0.0000 0.0000 0.0000 -5.2656 -3.9974 10.8732 9.1335 -6.1675 -0.5190 -0.0000 0.0000 -0.0000 5.6444 -8.7870 -12.2381 -0.0000 0.0000 -0.0000 -33.4419 -2.7241 2.4578 -39.2751 -19.9770 -18.9565 -10.1569 5.2871 42.3237 16.4752 -3.4580 -1.2316 -0.0000 0.0000 -0.0000 34.6593 5.1022 3.5007 42.1228 -0.0589 -19.2796 10.0006 1.0505 20.3129 -10.1093 1.2704 -0.5687 0.0000 0.0000 0.0000 -2.5708 2.1400 0.7964 -2.7946 -1.2217 21.4656 9.0125 0.3091 -14.1836 0.0000 0.0000 -0.0000
-5.9221 38.8327 32.1882 -178.3350 -26.9035 171.6950 0.0000 0.0000 0.0000 1.7356 13.8696 -16.9894 -5.3492 -7.7694 27.9895 1.1064 -0.1032 -1.1794 0.0000 -0.0000 -0.0000 0.0000 0.0000 0.0000 -5.2344 -4.2955 10.7341 9.5536 -6.6165 -0.1994 -0.0000 0.0000 -0.0000 5.8498 -8.8138 -12.7461 -0.0000 0.0000 -0.0000 -33.4498 -2.7763 2.4790 -40.0632 -20.2902 -18.2820 -10.3612 5.2821 42.4252 16.2323 -3.7514 -1.2520 -0.0000 0.0000 -0.0000 34.6286 5.0983 3.4965 41.9808 0.7762 -18.9326 10.0686 1.0678 20.6520 -10.3872 1.3790 -0.5936 0.0000 0.0000 0.0000 -2.5994 2.2531 3.0656 -3.2022 -2.2702 19.7074 9.7123 0.3620 -14.5687 0.0000 0.0000 -0.0000
-6.6550 38.9171 31.4648 -178.0910 -27.4925 172.1260 0.0000 0.0000 0.0000 2.5081 13.0903 -17.5788 -3.4811 -7.0015 19.5673 2.1155 -0.1882 -1.4443 0.0000 -0.0000 -0.0000 0.0000 0.0000 0.0000 -5.2521 -4.4362 10.3594 9.9044 -6.8508 0.0314 -0.0000 0.0000 -0.0000 5.8938 -8.8634 -12.8759 -0.0000 0.0000 -0.0000 -33.5720 -2.8150 2.5020 -40.9985 -20.3159 -17.2961 -10.7859 5.2842 42.1382 16.1403 -3.9257 -1.2677 -0.0000 0.0000 -0.0000 34.5513 5.0836 3.4838 41.7588 1.6317 -18.8240 10.0776 1.0953 20.4296 -10.6238 1.4184 -0.6108 0.0000 0.0000 0.0000 -2.8170 2.2787 5.1462 -3.3521 -2.8950 17.6409 10.2894 0.4064 -14.8590 0.0000 0.0000 -0.0000
-7.3808 38.9737 30.7495 -177.9960 -27.6934 172.7790 0.0000 0.0000 0.0000 4.0846 10.1618 -17.9179 -1.6773 -4.2196 11.6078 4.5222 -0.3590 -2.4407 0.0000 -0.0000 -0.0000 0.0000 0.0000 0.0000 -5.1725 -4.4391 9.9005 10.0093 -6.8462 0.1021 -0.0000 0.0000 -0.0000 5.8898 -8.9666 -12.6739 -0.0000 0.0000 -0.0000 -33.7319 -2.8516 2.5267 -41.9581 -20.1883 -16.2176 -11.2787 5.2747 42.2784 15.9840 -4.1336 -1.2822 -0.0000 0.0000 -0.0000 34.5113 5.0710 3.4751 41.4993 2.3090 -18.7160 10.0902 1.3863 20.0527 -10.6752 1.3718 -0.6099 0.0000 0.0000 0.0000 -3.1728 2.3027 7.0224 -3.2615 -2.9239 15.5331 10.4429 0.4369 -15.1237 0.0000 0.0000 -0.0000
